<?xml version="1.0" encoding="UTF-8"?>
<svg  xmlns="http://www.w3.org/2000/svg" width="160" height="160">
<path d="M4,46.2V35.2L80,2.4l76.1,32.8v10.9h-10.2c0,1.5-.5,2.8-1.6
3.8c-1.1,1.1-2.4,1.6-3.8,1.6H20c-1.5,0-2.8-.5-3.8-1.6c-1.1-1.1-1.6-2.4-1.6-3.8
M4,144.7c0-1.5,.5-2.8,1.6-3.8c1.1-1.1,2.4-1.6,3.8-1.6h141.3c1.5,0,2.8
.5,3.8,1.6c1.1,1.1,1.6,2.4,1.6,3.8v10.9H4V144.7
M14,133.7v-5.5c0-1.5,.5-2.8,1.6-3.8c1.1-1.1,2.4-1.6
3.8-1.6h4.7V57.1H45v65.7h10.1V57.1h20.3v65.7h10.2V57.1h20.3v65.7H116V57.1h20.3v65.7h4.7c1.5,0,2.8
.5,3.8,1.6c1.1,1.1,1.6,2.4,1.6,3.8v5.5H14"/>
</svg>